<?xml version="1.0" standalone="no"?>
<!DOCTYPE svg PUBLIC "-//W3C//DTD SVG 20010904//EN"
 "http://www.w3.org/TR/2001/REC-SVG-20010904/DTD/svg10.dtd">
<svg version="1.0" xmlns="http://www.w3.org/2000/svg"
 width="328.000000pt" height="328.000000pt" viewBox="0 0 328.000000 328.000000"
 preserveAspectRatio="xMidYMid meet">
<metadata>
Created by potrace 1.14, written by Peter Selinger 2001-2017
</metadata>
<g transform="translate(0.000000,328.000000) scale(0.100000,-0.100000)"
fill="#000000" stroke="none">
<path d="M1407 2265 c-58 -21 -138 -67 -172 -100 -93 -91 -151 -240 -141 -362
14 -169 97 -304 238 -387 138 -80 335 -74 473 16 102 65 180 175 205 289 19
86 9 223 -20 284 -44 91 -120 177 -194 219 -119 70 -265 85 -389 41z m99 -211
c-3 -7 -32 -23 -66 -35 -81 -29 -160 -114 -160 -171 0 -55 32 -86 110 -107
l65 -18 3 -62 c4 -88 0 -91 -120 -87 -99 3 -99 3 -118 34 -11 17 -27 60 -36
94 -52 201 77 423 275 474 l46 11 3 -60 c2 -33 1 -66 -2 -73z m99 94 c-10 -62
-27 -93 -53 -96 -22 -3 -23 -1 -21 67 l2 71 39 0 40 0 -7 -42z m180 -24 c58
-38 95 -75 99 -97 1 -9 11 -25 21 -37 10 -12 20 -28 21 -38 2 -9 10 -33 20
-54 13 -28 16 -56 12 -122 -4 -71 -10 -95 -38 -150 -58 -116 -142 -185 -259
-213 -95 -23 -105 -17 -96 55 4 31 10 60 14 64 3 4 50 16 102 27 103 20 172
50 188 79 15 28 -17 73 -70 100 -24 12 -77 29 -118 37 -41 9 -77 17 -79 20 -5
5 16 154 24 166 10 18 51 9 99 -22 40 -26 52 -29 72 -20 51 23 11 86 -75 116
-26 9 -54 20 -62 25 -17 9 -18 51 -1 92 10 26 12 27 43 16 18 -6 56 -26 83
-44z m-205 -188 c0 -70 -14 -146 -26 -146 -8 0 -15 8 -15 18 -3 31 2 117 7
135 8 26 34 21 34 -7z m-100 -60 c0 -36 -4 -67 -8 -70 -13 -8 -83 13 -99 29
-18 19 -1 54 40 82 57 39 67 32 67 -41z m65 -226 c0 -60 -2 -65 -22 -68 -20
-3 -23 1 -23 30 0 67 12 109 29 106 13 -3 16 -16 16 -68z m198 34 c20 -9 37
-23 37 -30 0 -15 -88 -49 -154 -58 l-49 -8 6 55 c3 31 8 60 11 65 7 12 101 -3
149 -24z m-205 -220 l-3 -59 -35 3 c-19 1 -38 6 -42 10 -3 4 -1 29 6 57 10 39
18 51 37 56 35 9 40 -1 37 -67z m-112 12 c-9 -46 -27 -46 -91 2 l-50 37 65 5
c36 3 69 2 74 -2 5 -3 5 -23 2 -42z"/>
<path d="M310 2181 c0 -23 76 -92 128 -116 20 -10 40 -23 44 -29 10 -15 186
-15 196 0 11 16 148 37 198 29 24 -3 50 -12 57 -18 7 -7 36 -32 65 -55 43 -36
55 -42 67 -32 8 7 15 15 15 19 0 19 -91 103 -130 121 -56 24 -152 26 -245 5
-104 -25 -183 -21 -243 9 -28 14 -67 39 -85 56 -40 34 -67 39 -67 11z"/>
<path d="M2205 2140 c-16 -25 67 -103 145 -137 49 -21 158 -21 274 1 138 25
192 14 271 -55 33 -30 65 -35 72 -13 6 17 -66 82 -121 109 -59 30 -158 34
-246 10 -76 -20 -190 -19 -237 2 -21 9 -59 34 -85 55 -49 40 -63 45 -73 28z"/>
<path d="M241 2001 c-24 -15 -7 -45 52 -92 61 -49 135 -79 197 -79 21 0 82 9
137 20 158 32 202 25 289 -46 45 -37 58 -43 70 -33 20 16 18 21 -23 64 -81 81
-188 104 -332 70 -104 -25 -189 -22 -250 9 -28 15 -69 42 -89 61 -25 22 -43
31 -51 26z"/>
<path d="M2133 1933 c-8 -21 68 -92 131 -122 71 -33 136 -36 266 -11 162 31
215 21 301 -57 32 -29 42 -33 54 -23 21 18 20 22 -22 65 -81 81 -184 103 -333
70 -104 -23 -192 -19 -250 10 -27 14 -65 38 -83 55 -39 34 -55 37 -64 13z"/>
<path d="M163 1784 c-13 -35 114 -128 201 -146 47 -10 73 -9 159 6 201 36 232
32 316 -34 55 -44 81 -50 81 -21 0 26 -54 76 -114 106 -60 30 -138 33 -248 9
-113 -24 -185 -21 -245 10 -28 14 -66 39 -84 56 -37 33 -57 38 -66 14z"/>
<path d="M2065 1740 c-10 -16 20 -57 68 -91 95 -70 165 -80 327 -49 159 30
218 19 302 -58 26 -24 58 -27 65 -6 6 17 -69 85 -122 110 -60 29 -139 31 -247
8 -40 -8 -103 -15 -139 -15 -58 0 -73 4 -126 36 -34 20 -69 45 -78 56 -20 21
-40 25 -50 9z"/>
<path d="M61 1436 c-7 -8 -8 -17 -3 -20 5 -3 261 -6 568 -6 558 -1 587 1 568
32 -3 4 -256 8 -563 8 -469 0 -560 -2 -570 -14z"/>
<path d="M1901 1436 c-8 -9 -8 -16 -2 -20 12 -8 1130 -8 1142 -1 4 3 6 12 2
20 -8 22 -1124 23 -1142 1z"/>
<path d="M190 1180 l0 -160 98 0 c124 0 174 21 210 90 28 53 25 101 -9 156
-34 55 -84 74 -201 74 l-98 0 0 -160z m228 121 c20 -11 45 -33 55 -49 22 -38
22 -105 0 -142 -18 -32 -80 -70 -112 -70 -20 0 -21 4 -21 140 0 134 1 140 20
140 12 0 37 -9 58 -19z"/>
<path d="M560 1180 l0 -160 75 0 75 0 0 160 0 160 -75 0 -75 0 0 -160z"/>
<path d="M835 1328 c-20 -64 -85 -289 -85 -297 0 -6 6 -11 13 -11 9 0 19 22
27 58 20 90 22 91 71 24 24 -34 47 -61 50 -61 4 -1 26 28 49 64 23 36 44 65
45 65 4 0 20 -49 35 -107 l11 -43 75 0 c57 0 75 3 72 13 -3 6 -24 78 -48 160
-24 81 -47 147 -52 147 -4 0 -32 -36 -60 -80 -29 -44 -56 -80 -60 -80 -4 0
-33 36 -64 80 -57 80 -71 91 -79 68z"/>
<path d="M1990 1150 l0 -160 89 0 c121 0 148 7 192 51 52 52 61 109 28 176
-36 72 -84 93 -211 93 l-98 0 0 -160z m229 120 c65 -33 92 -127 54 -192 -19
-32 -79 -68 -113 -68 -19 0 -20 6 -20 140 0 134 1 140 20 140 12 0 38 -9 59
-20z"/>
<path d="M2360 1150 l0 -160 75 0 75 0 0 160 0 160 -75 0 -75 0 0 -160z"/>
<path d="M2635 1298 c-12 -38 -75 -257 -81 -282 -5 -22 -4 -28 7 -24 8 3 22
33 31 68 9 34 19 65 22 67 3 3 24 -22 48 -55 24 -34 46 -61 49 -61 4 -1 26 28
49 64 23 36 44 65 45 65 4 0 20 -49 35 -107 l11 -43 75 0 c57 0 75 3 72 13 -3
6 -24 78 -48 160 -24 81 -47 147 -52 147 -4 0 -33 -38 -64 -85 l-57 -85 -60
85 c-60 84 -74 97 -82 73z"/>
</g>
</svg>
